<svg xmlns="http://www.w3.org/2000/svg" width="500" height="164" viewBox="0 0 500 164" fill="none"><path d="M65.7119 1.55835C69.2539 -0.519149 73.6181 -0.519098 77.1602 1.55835L137.148 36.7429C140.69 38.8204 142.873 42.6601 142.873 46.8152V117.185C142.873 121.34 140.69 125.179 137.148 127.257L77.1602 162.442C73.6182 164.519 69.2538 164.52 65.7119 162.442L5.72363 127.257C2.18195 125.179 0.00013886 121.34 0 117.185V46.8152C0 42.6602 2.18173 38.8205 5.72363 36.7429L65.7119 1.55835ZM77.1602 20.4568C73.6183 18.3796 69.2547 18.3796 65.7129 20.4568L21.835 46.1921C18.2929 48.2696 16.1114 52.1094 16.1113 56.2644V107.735C16.1113 111.89 18.2929 115.73 21.835 117.807L65.7129 143.543C69.2548 145.62 73.6182 145.62 77.1602 143.543L121.038 117.807C124.58 115.73 126.762 111.89 126.762 107.735V56.2644C126.762 52.1094 124.58 48.2696 121.038 46.1921L77.1602 20.4568Z" fill="#0085FF"></path><path d="M107.339 56.2626L74.8224 37.1904C72.7983 36.0033 70.3046 36.0033 68.2806 37.1904L35.7636 56.2626C34.6733 56.9021 34.6733 58.5008 35.7636 59.1403L68.2806 78.2125C70.3046 79.3997 72.7983 79.3997 74.8224 78.2125L107.339 59.1403C108.43 58.5008 108.43 56.9021 107.339 56.2626Z" fill="#0085FF"></path><path d="M111.007 106.571C111.513 106.274 111.824 105.725 111.824 105.132V64.1097C111.824 62.8308 110.461 62.0314 109.371 62.6709L76.0364 82.2227C74.5184 83.1131 73.5832 84.7585 73.5832 86.5393V125.643C73.5832 126.922 74.9461 127.721 76.0364 127.082L111.007 106.571Z" fill="#0085FF"></path><path d="M31.2661 105.132C31.2661 105.725 31.5778 106.274 32.0838 106.571L67.054 127.082C68.1443 127.721 69.5072 126.922 69.5072 125.643V86.5393C69.5072 84.7585 68.572 83.1131 67.054 82.2227L33.7193 62.6709C32.629 62.0314 31.2661 62.8308 31.2661 64.1097V105.132Z" fill="#0085FF"></path><path d="M481.771 115.462L468.619 95.3024L456.967 115.462H439.661L460.543 82.8786L439.43 50.53H457.659L470.696 70.5721L482.463 50.53H499.769L478.772 82.8786L500 115.462H481.771Z" fill="#0085FF"></path><path d="M401.278 116.517C395.124 116.517 389.587 115.149 384.664 112.415C379.742 109.602 375.858 105.656 373.012 100.577C370.243 95.4979 368.858 89.6376 368.858 82.996C368.858 76.3544 370.281 70.4941 373.127 65.4152C376.05 60.3364 380.011 56.4295 385.01 53.6947C390.01 50.8818 395.586 49.4753 401.739 49.4753C407.892 49.4753 413.468 50.8818 418.468 53.6947C423.467 56.4295 427.39 60.3364 430.236 65.4152C433.158 70.4941 434.62 76.3544 434.62 82.996C434.62 89.6376 433.12 95.4979 430.12 100.577C427.198 105.656 423.198 109.602 418.122 112.415C413.122 115.149 407.508 116.517 401.278 116.517ZM401.278 102.218C404.2 102.218 406.931 101.514 409.469 100.108C412.084 98.6234 414.161 96.4355 415.699 93.5445C417.237 90.6534 418.006 87.1373 418.006 82.996C418.006 76.8232 416.391 72.0959 413.161 68.8142C410.007 65.4543 406.123 63.7744 401.508 63.7744C396.893 63.7744 393.009 65.4543 389.856 68.8142C386.779 72.0959 385.241 76.8232 385.241 82.996C385.241 89.1688 386.741 93.9352 389.741 97.295C392.817 100.577 396.663 102.218 401.278 102.218Z" fill="white"></path><path d="M346.973 64.0088V95.4198C346.973 97.6077 347.473 99.2095 348.473 100.225C349.55 101.163 351.319 101.632 353.78 101.632H361.279V115.462H351.126C337.513 115.462 330.706 108.742 330.706 95.3026V64.0088H323.091V50.5302H330.706V34.4731H346.973V50.5302H361.279V64.0088H346.973Z" fill="white"></path><path d="M245.824 82.7616C245.824 76.1981 247.093 70.3769 249.631 65.298C252.246 60.2191 255.746 56.3123 260.13 53.5775C264.591 50.8427 269.552 49.4753 275.013 49.4753C279.781 49.4753 283.935 50.4521 287.473 52.4055C291.088 54.3589 293.972 56.8202 296.125 59.7894V50.5302H312.393V115.462H296.125V105.968C294.049 109.016 291.164 111.555 287.473 113.587C283.858 115.54 279.666 116.517 274.897 116.517C269.513 116.517 264.591 115.11 260.13 112.297C255.746 109.484 252.246 105.538 249.631 100.46C247.093 95.3026 245.824 89.4032 245.824 82.7616ZM296.125 82.996C296.125 79.011 295.356 75.6121 293.818 72.7992C292.28 69.9081 290.203 67.7203 287.588 66.2357C284.973 64.6729 282.166 63.8916 279.166 63.8916C276.166 63.8916 273.397 64.6339 270.859 66.1185C268.321 67.6031 266.244 69.7909 264.629 72.682C263.091 75.4949 262.322 78.8548 262.322 82.7616C262.322 86.6684 263.091 90.1064 264.629 93.0756C266.244 95.9667 268.321 98.1936 270.859 99.7563C273.474 101.319 276.243 102.1 279.166 102.1C282.166 102.1 284.973 101.358 287.588 99.8736C290.203 98.3108 292.28 96.123 293.818 93.3101C295.356 90.419 296.125 86.981 296.125 82.996Z" fill="white"></path><path d="M167.633 82.7615C167.633 76.1981 168.902 70.3769 171.44 65.298C174.055 60.2191 177.593 56.3123 182.054 53.5775C186.515 50.8427 191.476 49.4753 196.937 49.4753C201.09 49.4753 205.051 50.4129 208.82 52.2882C212.589 54.0853 215.589 56.5076 217.819 59.5549V28.73H234.202V115.462H217.819V105.851C215.819 109.055 213.012 111.633 209.397 113.586C205.782 115.54 201.59 116.517 196.822 116.517C191.438 116.517 186.515 115.11 182.054 112.297C177.593 109.484 174.055 105.538 171.44 100.46C168.902 95.3025 167.633 89.4032 167.633 82.7615ZM217.934 82.9959C217.934 79.011 217.165 75.612 215.627 72.7991C214.089 69.908 212.012 67.7202 209.397 66.2356C206.782 64.6729 203.975 63.8915 200.975 63.8915C197.975 63.8915 195.206 64.6338 192.668 66.1184C190.13 67.603 188.053 69.7908 186.438 72.6819C184.9 75.4948 184.131 78.8547 184.131 82.7615C184.131 86.6684 184.9 90.1064 186.438 93.0756C188.053 95.9666 190.13 98.1935 192.668 99.7563C195.283 101.319 198.052 102.1 200.975 102.1C203.975 102.1 206.782 101.358 209.397 99.8735C212.012 98.3108 214.089 96.1229 215.627 93.31C217.165 90.4189 217.934 86.9809 217.934 82.9959Z" fill="white"></path></svg>